<?xml version="1.0" encoding="UTF-8"?>
<svg xmlns="http://www.w3.org/2000/svg" xmlns:xlink="http://www.w3.org/1999/xlink" width="91.59pt" height="2.36pt" viewBox="0 0 91.59 2.36" version="1.1">
<defs>
<clipPath id="clip1">
  <path d="M 0 0 L 3 0 L 3 2.359375 L 0 2.359375 Z M 0 0 "/>
</clipPath>
<clipPath id="clip2">
  <path d="M 59 0 L 63 0 L 63 2.359375 L 59 2.359375 Z M 59 0 "/>
</clipPath>
<clipPath id="clip3">
  <path d="M 11 0 L 14 0 L 14 2.359375 L 11 2.359375 Z M 11 0 "/>
</clipPath>
<clipPath id="clip4">
  <path d="M 74 0 L 77 0 L 77 2.359375 L 74 2.359375 Z M 74 0 "/>
</clipPath>
<clipPath id="clip5">
  <path d="M 85 0 L 88 0 L 88 2.359375 L 85 2.359375 Z M 85 0 "/>
</clipPath>
<clipPath id="clip6">
  <path d="M 41 0 L 44 0 L 44 2.359375 L 41 2.359375 Z M 41 0 "/>
</clipPath>
<clipPath id="clip7">
  <path d="M 78 0 L 81 0 L 81 2.359375 L 78 2.359375 Z M 78 0 "/>
</clipPath>
<clipPath id="clip8">
  <path d="M 30 0 L 33 0 L 33 2.359375 L 30 2.359375 Z M 30 0 "/>
</clipPath>
<clipPath id="clip9">
  <path d="M 23 0 L 26 0 L 26 2.359375 L 23 2.359375 Z M 23 0 "/>
</clipPath>
<clipPath id="clip10">
  <path d="M 64 0 L 66 0 L 66 2.359375 L 64 2.359375 Z M 64 0 "/>
</clipPath>
<clipPath id="clip11">
  <path d="M 7 0 L 10 0 L 10 2.359375 L 7 2.359375 Z M 7 0 "/>
</clipPath>
<clipPath id="clip12">
  <path d="M 55 0 L 58 0 L 58 2.359375 L 55 2.359375 Z M 55 0 "/>
</clipPath>
<clipPath id="clip13">
  <path d="M 19 0 L 22 0 L 22 2.359375 L 19 2.359375 Z M 19 0 "/>
</clipPath>
<clipPath id="clip14">
  <path d="M 27 0 L 28 0 L 28 2.359375 L 27 2.359375 Z M 27 0 "/>
</clipPath>
<clipPath id="clip15">
  <path d="M 45 0 L 47 0 L 47 2.359375 L 45 2.359375 Z M 45 0 "/>
</clipPath>
<clipPath id="clip16">
  <path d="M 52 0 L 54 0 L 54 2.359375 L 52 2.359375 Z M 52 0 "/>
</clipPath>
<clipPath id="clip17">
  <path d="M 83 0 L 84 0 L 84 2.359375 L 83 2.359375 Z M 83 0 "/>
</clipPath>
<clipPath id="clip18">
  <path d="M 15 0 L 18 0 L 18 2.359375 L 15 2.359375 Z M 15 0 "/>
</clipPath>
<clipPath id="clip19">
  <path d="M 37 0 L 40 0 L 40 2.359375 L 37 2.359375 Z M 37 0 "/>
</clipPath>
<clipPath id="clip20">
  <path d="M 48 0 L 51 0 L 51 2.359375 L 48 2.359375 Z M 48 0 "/>
</clipPath>
<clipPath id="clip21">
  <path d="M 70 0 L 73 0 L 73 2.359375 L 70 2.359375 Z M 70 0 "/>
</clipPath>
<clipPath id="clip22">
  <path d="M 89 0 L 91.589844 0 L 91.589844 2.359375 L 89 2.359375 Z M 89 0 "/>
</clipPath>
</defs>
<g id="surface1">
<g clip-path="url(#clip1)" clip-rule="nonzero">
<path style=" stroke:none;fill-rule:evenodd;fill:rgb(90%,90%,90%);fill-opacity:1;" d="M 0.789063 1.414063 L 1.101563 0.546875 L 1.414063 1.414063 Z M 0 2.300781 L 0.46875 2.300781 L 0.652344 1.789063 L 1.550781 1.789063 L 1.734375 2.300781 L 2.199219 2.300781 L 1.332031 0.0507813 L 0.871094 0.0507813 L 0 2.300781 "/>
</g>
<g clip-path="url(#clip2)" clip-rule="nonzero">
<path style=" stroke:none;fill-rule:evenodd;fill:rgb(90%,90%,90%);fill-opacity:1;" d="M 60.753906 1.414063 L 61.066406 0.546875 L 61.378906 1.414063 Z M 59.96875 2.300781 L 60.433594 2.300781 L 60.617188 1.789063 L 61.515625 1.789063 L 61.699219 2.300781 L 62.167969 2.300781 L 61.296875 0.0507813 L 60.839844 0.0507813 L 59.96875 2.300781 "/>
</g>
<g clip-path="url(#clip3)" clip-rule="nonzero">
<path style=" stroke:none;fill-rule:evenodd;fill:rgb(90%,90%,90%);fill-opacity:1;" d="M 11.457031 0.0546875 L 13.070313 0.0546875 L 13.070313 0.433594 L 11.894531 0.433594 L 11.894531 0.960938 L 13.039063 0.960938 L 13.039063 1.34375 L 11.894531 1.34375 L 11.894531 1.914063 L 13.089844 1.914063 L 13.089844 2.296875 L 11.457031 2.296875 L 11.457031 0.0546875 "/>
</g>
<g clip-path="url(#clip4)" clip-rule="nonzero">
<path style=" stroke:none;fill-rule:evenodd;fill:rgb(90%,90%,90%);fill-opacity:1;" d="M 74.960938 0.0546875 L 76.574219 0.0546875 L 76.574219 0.433594 L 75.394531 0.433594 L 75.394531 0.960938 L 76.542969 0.960938 L 76.542969 1.34375 L 75.394531 1.34375 L 75.394531 1.914063 L 76.59375 1.914063 L 76.59375 2.296875 L 74.960938 2.296875 L 74.960938 0.0546875 "/>
</g>
<g clip-path="url(#clip5)" clip-rule="nonzero">
<path style=" stroke:none;fill-rule:evenodd;fill:rgb(90%,90%,90%);fill-opacity:1;" d="M 85.914063 0.0546875 L 87.527344 0.0546875 L 87.527344 0.433594 L 86.347656 0.433594 L 86.347656 0.960938 L 87.496094 0.960938 L 87.496094 1.34375 L 86.347656 1.34375 L 86.347656 1.914063 L 87.546875 1.914063 L 87.546875 2.296875 L 85.914063 2.296875 L 85.914063 0.0546875 "/>
</g>
<g clip-path="url(#clip6)" clip-rule="nonzero">
<path style=" stroke:none;fill-rule:evenodd;fill:rgb(90%,90%,90%);fill-opacity:1;" d="M 42.019531 0.433594 L 42.019531 1.136719 L 42.511719 1.136719 C 42.753906 1.136719 42.921875 0.996094 42.921875 0.785156 C 42.921875 0.5625 42.742188 0.433594 42.511719 0.433594 Z M 41.582031 0.0546875 L 42.558594 0.0546875 C 43.101563 0.0546875 43.371094 0.382813 43.371094 0.789063 C 43.371094 1.085938 43.199219 1.335938 42.917969 1.449219 L 43.476563 2.296875 L 42.960938 2.296875 L 42.460938 1.519531 L 42.019531 1.519531 L 42.019531 2.296875 L 41.582031 2.296875 L 41.582031 0.0546875 "/>
</g>
<g clip-path="url(#clip7)" clip-rule="nonzero">
<path style=" stroke:none;fill-rule:evenodd;fill:rgb(90%,90%,90%);fill-opacity:1;" d="M 79.386719 0.433594 L 79.386719 1.136719 L 79.878906 1.136719 C 80.121094 1.136719 80.289063 0.996094 80.289063 0.785156 C 80.289063 0.5625 80.109375 0.433594 79.878906 0.433594 Z M 78.949219 0.0546875 L 79.925781 0.0546875 C 80.46875 0.0546875 80.738281 0.382813 80.738281 0.789063 C 80.738281 1.085938 80.566406 1.335938 80.285156 1.449219 L 80.84375 2.296875 L 80.324219 2.296875 L 79.824219 1.519531 L 79.386719 1.519531 L 79.386719 2.296875 L 78.949219 2.296875 L 78.949219 0.0546875 "/>
</g>
<g clip-path="url(#clip8)" clip-rule="nonzero">
<path style=" stroke:none;fill-rule:evenodd;fill:rgb(90%,90%,90%);fill-opacity:1;" d="M 30.128906 0.0546875 L 30.664063 0.0546875 L 31.160156 0.785156 L 31.648438 0.0546875 L 32.179688 0.0546875 L 31.425781 1.117188 L 32.265625 2.296875 L 31.722656 2.296875 L 31.140625 1.46875 L 30.570313 2.296875 L 30.03125 2.296875 L 30.875 1.125 L 30.128906 0.0546875 "/>
</g>
<g clip-path="url(#clip9)" clip-rule="nonzero">
<path style=" stroke:none;fill-rule:evenodd;fill:rgb(90%,90%,90%);fill-opacity:1;" d="M 23.492188 0.0546875 L 23.925781 0.0546875 L 23.925781 1.914063 L 25.066406 1.914063 L 25.066406 2.296875 L 23.492188 2.296875 L 23.492188 0.0546875 "/>
</g>
<g clip-path="url(#clip10)" clip-rule="nonzero">
<path style=" stroke:none;fill-rule:evenodd;fill:rgb(90%,90%,90%);fill-opacity:1;" d="M 64.394531 0.0546875 L 64.828125 0.0546875 L 64.828125 1.914063 L 65.96875 1.914063 L 65.96875 2.296875 L 64.394531 2.296875 L 64.394531 0.0546875 "/>
</g>
<g clip-path="url(#clip11)" clip-rule="nonzero">
<path style=" stroke:none;fill-rule:evenodd;fill:rgb(90%,90%,90%);fill-opacity:1;" d="M 7.492188 0.726563 L 7.492188 2.296875 L 7.066406 2.296875 L 7.066406 0.0546875 L 7.5 0.0546875 L 8.609375 1.617188 L 8.609375 0.0546875 L 9.03125 0.0546875 L 9.03125 2.296875 L 8.605469 2.296875 L 7.492188 0.726563 "/>
</g>
<g clip-path="url(#clip12)" clip-rule="nonzero">
<path style=" stroke:none;fill-rule:evenodd;fill:rgb(90%,90%,90%);fill-opacity:1;" d="M 56.246094 0.726563 L 56.246094 2.296875 L 55.824219 2.296875 L 55.824219 0.0546875 L 56.253906 0.0546875 L 57.363281 1.617188 L 57.363281 0.0546875 L 57.785156 0.0546875 L 57.785156 2.296875 L 57.359375 2.296875 L 56.246094 0.726563 "/>
</g>
<g clip-path="url(#clip13)" clip-rule="nonzero">
<path style=" stroke:none;fill-rule:evenodd;fill:rgb(90%,90%,90%);fill-opacity:1;" d="M 19.566406 0.0546875 L 21.140625 0.0546875 L 21.140625 0.433594 L 20 0.433594 L 20 1.015625 L 21.109375 1.015625 L 21.109375 1.398438 L 20 1.398438 L 20 2.296875 L 19.566406 2.296875 L 19.566406 0.0546875 "/>
</g>
<g clip-path="url(#clip14)" clip-rule="nonzero">
<path style=" stroke:none;fill-rule:evenodd;fill:rgb(90%,90%,90%);fill-opacity:1;" d="M 27.347656 0.0546875 L 27.78125 0.0546875 L 27.78125 2.296875 L 27.347656 2.296875 L 27.347656 0.0546875 "/>
</g>
<g clip-path="url(#clip15)" clip-rule="nonzero">
<path style=" stroke:none;fill-rule:evenodd;fill:rgb(90%,90%,90%);fill-opacity:1;" d="M 45.71875 0.0546875 L 46.152344 0.0546875 L 46.152344 2.296875 L 45.71875 2.296875 L 45.71875 0.0546875 "/>
</g>
<g clip-path="url(#clip16)" clip-rule="nonzero">
<path style=" stroke:none;fill-rule:evenodd;fill:rgb(90%,90%,90%);fill-opacity:1;" d="M 52.929688 0.0546875 L 53.363281 0.0546875 L 53.363281 2.296875 L 52.929688 2.296875 L 52.929688 0.0546875 "/>
</g>
<g clip-path="url(#clip17)" clip-rule="nonzero">
<path style=" stroke:none;fill-rule:evenodd;fill:rgb(90%,90%,90%);fill-opacity:1;" d="M 83.058594 0.0546875 L 83.492188 0.0546875 L 83.492188 2.296875 L 83.058594 2.296875 L 83.058594 0.0546875 "/>
</g>
<g clip-path="url(#clip18)" clip-rule="nonzero">
<path style=" stroke:none;fill-rule:evenodd;fill:rgb(90%,90%,90%);fill-opacity:1;" d="M 15.316406 0.0546875 L 17.242188 0.0546875 L 17.242188 0.433594 L 16.5 0.433594 L 16.5 2.296875 L 16.0625 2.296875 L 16.0625 0.433594 L 15.316406 0.433594 L 15.316406 0.0546875 "/>
</g>
<g clip-path="url(#clip19)" clip-rule="nonzero">
<path style=" stroke:none;fill-rule:evenodd;fill:rgb(90%,90%,90%);fill-opacity:1;" d="M 38.15625 0.402344 C 38.582031 0.402344 38.84375 0.753906 38.84375 1.183594 C 38.84375 1.617188 38.5625 1.957031 38.15625 1.957031 C 37.746094 1.957031 37.464844 1.617188 37.464844 1.183594 C 37.464844 0.753906 37.726563 0.402344 38.15625 0.402344 Z M 38.15625 0.0078125 C 38.863281 0.0078125 39.296875 0.535156 39.296875 1.183594 C 39.296875 1.835938 38.84375 2.359375 38.15625 2.359375 C 37.46875 2.359375 37.019531 1.835938 37.019531 1.183594 C 37.019531 0.535156 37.449219 0.0078125 38.15625 0.0078125 "/>
</g>
<g clip-path="url(#clip20)" clip-rule="nonzero">
<path style=" stroke:none;fill-rule:evenodd;fill:rgb(90%,90%,90%);fill-opacity:1;" d="M 49.582031 1.039063 L 50.617188 1.039063 L 50.617188 1.253906 C 50.617188 1.332031 50.621094 1.492188 50.601563 1.597656 C 50.53125 1.960938 50.195313 2.359375 49.597656 2.359375 C 48.871094 2.359375 48.457031 1.832031 48.457031 1.179688 C 48.457031 0.546875 48.859375 0 49.585938 0 C 50.074219 0 50.464844 0.25 50.585938 0.699219 L 50.117188 0.699219 C 50.011719 0.515625 49.835938 0.402344 49.597656 0.402344 C 49.171875 0.402344 48.910156 0.753906 48.910156 1.183594 C 48.910156 1.617188 49.1875 1.957031 49.597656 1.957031 C 49.925781 1.957031 50.1875 1.722656 50.183594 1.414063 L 49.582031 1.414063 L 49.582031 1.039063 "/>
</g>
<g clip-path="url(#clip21)" clip-rule="nonzero">
<path style=" stroke:none;fill-rule:evenodd;fill:rgb(90%,90%,90%);fill-opacity:1;" d="M 70.863281 0.664063 C 70.863281 0.496094 70.960938 0.316406 71.074219 0.21875 C 71.269531 0.0390625 71.554688 0.00390625 71.730469 0.00390625 C 72.351563 0.00390625 72.578125 0.378906 72.609375 0.660156 L 72.167969 0.660156 C 72.125 0.492188 71.953125 0.386719 71.78125 0.386719 C 71.496094 0.386719 71.3125 0.472656 71.3125 0.671875 C 71.3125 0.832031 71.414063 0.867188 71.605469 0.917969 C 71.753906 0.941406 71.902344 0.96875 72.046875 0.996094 C 72.523438 1.101563 72.632813 1.359375 72.632813 1.628906 C 72.632813 1.910156 72.539063 2.066406 72.359375 2.195313 C 72.1875 2.316406 71.980469 2.351563 71.71875 2.351563 C 71.136719 2.351563 70.882813 2.003906 70.789063 1.667969 L 71.238281 1.667969 C 71.324219 1.871094 71.507813 1.964844 71.757813 1.964844 C 72.066406 1.964844 72.183594 1.828125 72.183594 1.65625 C 72.183594 1.550781 72.085938 1.449219 71.886719 1.398438 C 71.738281 1.371094 71.589844 1.347656 71.441406 1.324219 C 71.203125 1.273438 71.03125 1.195313 70.9375 1.023438 C 70.886719 0.933594 70.863281 0.816406 70.863281 0.664063 "/>
</g>
<g clip-path="url(#clip22)" clip-rule="nonzero">
<path style=" stroke:none;fill-rule:evenodd;fill:rgb(90%,90%,90%);fill-opacity:1;" d="M 89.824219 0.664063 C 89.824219 0.496094 89.921875 0.316406 90.03125 0.21875 C 90.230469 0.0390625 90.515625 0.00390625 90.691406 0.00390625 C 91.3125 0.00390625 91.539063 0.378906 91.570313 0.660156 L 91.128906 0.660156 C 91.085938 0.492188 90.914063 0.386719 90.742188 0.386719 C 90.457031 0.386719 90.273438 0.472656 90.273438 0.671875 C 90.273438 0.832031 90.375 0.867188 90.566406 0.917969 C 90.714844 0.941406 90.859375 0.96875 91.007813 0.996094 C 91.484375 1.101563 91.59375 1.359375 91.59375 1.628906 C 91.59375 1.910156 91.5 2.066406 91.320313 2.195313 C 91.148438 2.316406 90.941406 2.351563 90.679688 2.351563 C 90.097656 2.351563 89.84375 2.003906 89.746094 1.667969 L 90.199219 1.667969 C 90.28125 1.871094 90.46875 1.964844 90.71875 1.964844 C 91.027344 1.964844 91.140625 1.828125 91.140625 1.65625 C 91.140625 1.550781 91.046875 1.449219 90.847656 1.398438 C 90.699219 1.371094 90.550781 1.347656 90.402344 1.324219 C 90.164063 1.273438 89.992188 1.195313 89.898438 1.023438 C 89.847656 0.933594 89.824219 0.816406 89.824219 0.664063 "/>
</g>
</g>
</svg>
